<svg width="26" height="28" viewBox="0 0 26 28" fill="none" xmlns="http://www.w3.org/2000/svg">
<path d="M25.4163 8.5875C25.2307 8.40084 25.01 8.25281 24.7669 8.15197C24.5238 8.05113 24.2632 7.99948 24 8H20V7C20 5.14348 19.2625 3.36301 17.9497 2.05025C16.637 0.737498 14.8565 0 13 0C11.1435 0 9.36301 0.737498 8.05025 2.05025C6.7375 3.36301 6 5.14348 6 7V8H2C1.46957 8 0.960859 8.21071 0.585786 8.58579C0.210714 8.96086 0 9.46957 0 10V23.5C0 25.9375 2.0625 28 4.5 28H21.5C22.6791 28.0004 23.8114 27.5394 24.655 26.7156C25.0795 26.3106 25.4176 25.8238 25.6487 25.2846C25.8799 24.7453 25.9994 24.1648 26 23.5781V10C26.0008 9.73768 25.9496 9.47779 25.8494 9.23535C25.7492 8.99292 25.602 8.77273 25.4163 8.5875ZM17 19H14V22C14 22.2652 13.8946 22.5196 13.7071 22.7071C13.5196 22.8946 13.2652 23 13 23C12.7348 23 12.4804 22.8946 12.2929 22.7071C12.1054 22.5196 12 22.2652 12 22V19H9C8.73478 19 8.48043 18.8946 8.29289 18.7071C8.10536 18.5196 8 18.2652 8 18C8 17.7348 8.10536 17.4804 8.29289 17.2929C8.48043 17.1054 8.73478 17 9 17H12V14C12 13.7348 12.1054 13.4804 12.2929 13.2929C12.4804 13.1054 12.7348 13 13 13C13.2652 13 13.5196 13.1054 13.7071 13.2929C13.8946 13.4804 14 13.7348 14 14V17H17C17.2652 17 17.5196 17.1054 17.7071 17.2929C17.8946 17.4804 18 17.7348 18 18C18 18.2652 17.8946 18.5196 17.7071 18.7071C17.5196 18.8946 17.2652 19 17 19ZM18 8H8V7C8 5.67392 8.52678 4.40215 9.46447 3.46447C10.4021 2.52678 11.6739 2 13 2C14.3261 2 15.5979 2.52678 16.5355 3.46447C17.4732 4.40215 18 5.67392 18 7V8Z" fill="black"/>
</svg>
